<svg width="51" height="51" viewBox="0 0 51 51" fill="none" xmlns="http://www.w3.org/2000/svg">
<g clip-path="url(#clip0_3464_15964)">
<path fill-rule="evenodd" clip-rule="evenodd" d="M37.9858 14.1289C36.1145 14.1289 34.2908 14.6039 32.5745 15.5352C31.7208 15.9927 30.9483 16.5402 30.192 17.2377L23.8595 23.5564L17.6158 29.7864C17.292 30.0852 16.9095 30.3527 16.462 30.5914C15.582 31.0677 14.6745 31.3114 13.762 31.3114C10.602 31.3114 8.03203 28.7414 8.03203 25.5814C8.03203 22.4214 10.602 19.8514 13.762 19.8514C14.662 19.8514 15.567 20.0914 16.4445 20.5602C17.0033 20.8639 17.4395 21.1714 17.7633 21.4889L17.7958 21.5214C18.9083 22.6339 20.712 22.6339 21.8245 21.5214C22.9383 20.4089 22.9383 18.6039 21.8245 17.4902L21.7758 17.4414C21.0483 16.7239 20.1858 16.1039 19.1408 15.5402C17.4233 14.6189 15.612 14.1514 13.762 14.1514C7.45953 14.1514 2.33203 19.2789 2.33203 25.5814C2.33203 31.8852 7.46078 37.0114 13.762 37.0114C15.6333 37.0114 17.457 36.5364 19.1733 35.6052C20.027 35.1477 20.7995 34.6002 21.5558 33.9027L27.8883 27.5852L34.132 21.3552C34.4558 21.0564 34.8383 20.7889 35.2858 20.5502C36.1658 20.0739 37.0733 19.8302 37.9858 19.8302C41.1458 19.8302 43.7158 22.4002 43.7158 25.5602C43.7158 28.7202 41.1458 31.2902 37.9858 31.2902C37.0858 31.2902 36.1808 31.0502 35.3033 30.5814C34.7445 30.2777 34.3083 29.9702 33.9845 29.6527L33.952 29.6202C32.8395 28.5077 31.0358 28.5077 29.9233 29.6202C28.8095 30.7327 28.8095 32.5377 29.9233 33.6514L29.972 33.7002C30.6995 34.4177 31.562 35.0377 32.607 35.6014C34.3245 36.5227 36.1358 36.9902 37.9858 36.9902C44.2883 36.9902 49.4158 31.8627 49.4158 25.5602C49.4158 19.2564 44.287 14.1289 37.9858 14.1289Z" fill="#A4F4CF"/>
</g>
<defs>
<clipPath id="clip0_3464_15964">
<rect width="50" height="50" fill="white" transform="translate(0.875 0.570312)"/>
</clipPath>
</defs>
</svg>
