<svg width="51" height="51" viewBox="0 0 51 51" fill="none" xmlns="http://www.w3.org/2000/svg">
<g clip-path="url(#clip0_3464_15981)">
<path d="M39.3417 36.7489H11.543V22.3477L38.973 24.1977L39.3417 36.7489Z" fill="#E4E6E9"/>
<path d="M27.2056 32.0519C34.6456 32.0519 40.6769 26.0206 40.6769 18.5806C40.6769 11.1407 34.6456 5.10938 27.2056 5.10938C19.7657 5.10938 13.7344 11.1407 13.7344 18.5806C13.7344 26.0206 19.7657 32.0519 27.2056 32.0519Z" fill="#E4E6E9"/>
<path d="M38.9275 36.7476C44.3068 36.7476 48.6675 32.3868 48.6675 27.0076C48.6675 21.6283 44.3068 17.2676 38.9275 17.2676C33.5482 17.2676 29.1875 21.6283 29.1875 27.0076C29.1875 32.3868 33.5482 36.7476 38.9275 36.7476Z" fill="#E4E6E9"/>
<path d="M13.005 36.7463C18.8067 36.7463 23.51 32.0431 23.51 26.2413C23.51 20.4396 18.8067 15.7363 13.005 15.7363C7.20325 15.7363 2.5 20.4396 2.5 26.2413C2.5 32.0431 7.20325 36.7463 13.005 36.7463Z" fill="#E4E6E9"/>
<path d="M16.4918 33.474H34.0856C34.4106 33.474 34.5781 33.0865 34.3568 32.849L25.8294 23.714C25.4694 23.329 24.8581 23.3328 24.5043 23.7228L16.2181 32.8528C16.0018 33.0915 16.1706 33.474 16.4931 33.474H16.4918Z" fill="#4480E9"/>
<path d="M33.2689 41.0264C30.7514 41.0264 28.7114 39.2352 28.7114 37.0239V33.4727H21.2227V38.7389C21.2227 42.7652 24.9389 46.0289 29.5239 46.0289C34.1089 46.0289 37.8252 42.7652 37.8252 38.7389V37.0227C37.8252 39.2327 35.7852 41.0252 33.2677 41.0252L33.2689 41.0264Z" fill="#4480E9"/>
</g>
<defs>
<clipPath id="clip0_3464_15981">
<rect width="50" height="50" fill="white" transform="translate(0.375 0.570312)"/>
</clipPath>
</defs>
</svg>
