<svg width="310" height="53" viewBox="0 0 310 53" fill="none" xmlns="http://www.w3.org/2000/svg">
<rect x="0.5" y="1.07031" width="309" height="51" rx="9.5" stroke="#FCCDB2"/>
<path d="M41.523 25.5103V28.6103H25.803V25.5103H28.403V21.0903H25.983V17.9703H41.343V21.0903H38.923V25.5103H41.523ZM31.803 21.0903V25.5103H35.523V21.0903H31.803ZM25.023 30.8903H42.303V34.0503H25.023V30.8903ZM60.7813 17.5703V34.6503H57.4013V17.5703H60.7813ZM54.9213 17.9703V27.3703H48.3813V30.8103H52.0813C53.7013 30.8103 55.4613 30.4703 56.5013 29.9903V33.0303C55.4613 33.5503 53.6413 33.8503 51.9413 33.8503H45.0213V24.3703H51.5613V21.0103H44.9813V17.9703H54.9213ZM80.0195 17.5703V34.6503H76.6395V17.5703H80.0195ZM74.3795 17.9703V33.8503H64.2595V17.9703H74.3795ZM67.6395 30.6903H70.9995V21.1303H67.6395V30.6903ZM95.9578 17.5703H99.3378V26.8103H95.9578V23.6303H93.3978C92.7178 25.4703 90.7978 26.5903 88.1778 26.5903C84.8978 26.5903 82.6978 24.8103 82.6978 22.0903C82.6978 19.3903 84.8978 17.5903 88.1778 17.5903C90.7378 17.5903 92.6578 18.6903 93.3578 20.4703H95.9578V17.5703ZM88.1778 23.8503C89.4778 23.8503 90.2978 23.1703 90.2978 22.0903C90.2978 21.0103 89.4778 20.3303 88.1778 20.3303C86.8778 20.3303 86.0578 21.0103 86.0578 22.0903C86.0578 23.1703 86.8778 23.8503 88.1778 23.8503ZM84.2578 34.6503V27.4103H99.3378V34.6503H84.2578ZM87.6378 30.1903V31.8703H95.9578V30.1903H87.6378ZM124.102 17.5703V34.6503H120.722V17.5703H124.102ZM118.082 17.9703V22.5903C118.082 29.5303 114.222 33.8503 108.242 33.8503V30.6503C112.382 30.6103 114.622 27.5303 114.622 22.5903V21.0503H108.242V17.9703H118.082ZM131.24 17.4703V21.2503H143.26V23.8303H127.86V17.4703H131.24ZM144.1 24.7903V27.3903H126.82V24.7903H144.1ZM135.46 28.1303C140.06 28.1303 143.26 29.0303 143.26 31.4903C143.26 33.9503 140.06 34.8503 135.46 34.8503C130.86 34.8503 127.66 33.9503 127.66 31.4903C127.66 29.0303 130.86 28.1303 135.46 28.1303ZM135.46 30.6503C132.98 30.6503 131.26 30.8903 131.26 31.4903C131.26 32.1103 132.98 32.3303 135.46 32.3303C137.94 32.3303 139.66 32.1103 139.66 31.4903C139.66 30.8903 137.94 30.6503 135.46 30.6503ZM154.904 34.2303V20.0503H151.584V18.2103H157.004V34.2303H154.904ZM175.347 17.5703H177.247V34.6503H175.347V26.3103H172.427V34.3503H170.527V17.6703H172.427V24.4503H175.347V17.5703ZM161.207 19.9903V18.1903H168.347V22.7903C168.347 29.3903 165.387 33.5503 161.207 33.5903V31.7303C164.387 31.6303 166.427 28.1703 166.427 22.8903V19.9903H161.207ZM194.165 26.7303V21.5903H191.805V19.8103H194.165V17.5703H196.145V26.7303H194.165ZM185.925 23.5703C182.925 23.5703 180.945 22.4503 180.945 20.5903C180.945 18.7503 182.925 17.6103 185.925 17.6103C188.925 17.6103 190.905 18.7503 190.905 20.5903C190.905 22.4503 188.925 23.5703 185.925 23.5703ZM185.925 19.0703C184.085 19.0703 182.865 19.6303 182.865 20.5903C182.865 21.5303 184.085 22.1103 185.925 22.1103C187.785 22.1103 188.985 21.5303 188.985 20.5903C188.985 19.6303 187.785 19.0703 185.925 19.0703ZM183.625 32.9703H196.565V34.4303H181.665V30.3503H194.205V29.1303H181.625V27.6703H184.845V26.1903H180.065V24.6703H187.125C189.465 24.6703 191.545 24.4703 192.725 23.9903V25.5103C191.645 25.9903 189.505 26.1903 187.065 26.1903H186.805V27.6703H196.145V31.7503H183.625V32.9703ZM220.769 18.0703V26.3503H206.089V18.0703H220.769ZM218.789 24.5303V19.9103H208.069V24.5303H218.789ZM221.969 28.4103V30.2903H214.449V35.0503H212.409V30.2903H204.909V28.4103H221.969ZM236.947 32.0303H241.207V33.8303H224.147V32.0303H228.407V28.7103H225.287V22.5903H238.127V19.9503H225.287V18.1903H240.087V24.2903H227.267V26.9503H240.347V28.7103H236.947V32.0303ZM230.387 28.7103V32.0303H234.967V28.7103H230.387ZM257.925 17.5703H259.805V34.6503H257.925V17.5703ZM253.505 24.0703V17.6703H255.385V34.3503H253.505V25.9303H250.805V24.0703H253.505ZM248.845 19.9903C248.825 21.9103 248.725 23.6303 248.545 25.1503L252.705 32.4703L251.085 33.3903L248.045 27.8703C247.205 31.3303 245.705 33.2503 243.525 33.6303V31.6903C245.785 31.0703 246.905 26.5503 246.945 19.9903H243.805V18.1903H251.845V19.9903H248.845ZM276.443 23.5703V19.4503H263.763V17.7703H278.423V23.5703H276.443ZM271.023 24.7703H279.683V26.4103H262.623V24.7703H269.023V21.4303H271.023V24.7703ZM271.143 28.0103C275.223 28.0103 278.643 28.9503 278.643 31.3303C278.643 33.7303 275.223 34.6703 271.143 34.6703C267.063 34.6703 263.643 33.7303 263.643 31.3303C263.643 28.8703 267.063 28.0103 271.143 28.0103ZM271.143 33.0903C273.903 33.0903 276.563 32.5503 276.563 31.3303C276.563 30.1303 273.903 29.5903 271.143 29.5903C268.383 29.5903 265.723 30.0703 265.723 31.3303C265.723 32.5503 268.383 33.0903 271.143 33.0903ZM282.602 29.7903L282.102 18.2103H284.642L284.122 29.7903H282.602ZM283.362 34.5503C282.522 34.5503 281.882 33.9103 281.882 33.0703C281.882 32.2503 282.522 31.6103 283.362 31.6103C284.202 31.6103 284.842 32.2503 284.842 33.0703C284.842 33.9103 284.202 34.5503 283.362 34.5503Z" fill="#FCCDB2"/>
</svg>
