<svg width="51" height="51" viewBox="0 0 51 51" fill="none" xmlns="http://www.w3.org/2000/svg">
<g clip-path="url(#clip0_3464_15971)">
<path d="M35.0194 6.08594H14.5106C9.18039 6.08594 4.85938 10.4069 4.85938 15.7372V36.2459C4.85938 41.5762 9.18039 45.8972 14.5106 45.8972H35.0194C40.3496 45.8972 44.6706 41.5762 44.6706 36.2459V15.7372C44.6706 10.4069 40.3496 6.08594 35.0194 6.08594Z" fill="#9CC7F9"/>
<path d="M38.1366 21.1891C43.23 21.1891 47.3591 17.0601 47.3591 11.9666C47.3591 6.87319 43.23 2.74414 38.1366 2.74414C33.0431 2.74414 28.9141 6.87319 28.9141 11.9666C28.9141 17.0601 33.0431 21.1891 38.1366 21.1891Z" fill="#CF3D40"/>
<path d="M35.625 10.4763V9.06883L37.9437 7.54883H39.07V15.9588H37.6175V9.19258L35.625 10.4763Z" fill="white"/>
</g>
<defs>
<clipPath id="clip0_3464_15971">
<rect width="50" height="50" fill="white" transform="translate(0.625 0.570312)"/>
</clipPath>
</defs>
</svg>
