<svg width="51" height="51" viewBox="0 0 51 51" fill="none" xmlns="http://www.w3.org/2000/svg">
<g clip-path="url(#clip0_3464_15995)">
<path d="M21.8967 38.8361V36.8811C21.8967 36.2286 22.4255 35.6998 23.078 35.6998H42.3292V9.81984C42.3292 7.75984 40.6592 6.08984 38.5992 6.08984H5.73047C5.78172 6.08984 5.82797 6.10234 5.87922 6.10484C7.86922 6.18484 9.46172 7.81109 9.46172 9.81984V38.8361C9.46172 42.2698 12.2455 45.0536 15.6792 45.0536C19.113 45.0536 21.8967 42.2698 21.8967 38.8361ZM12.6142 13.2373H38.9355V14.4873H12.6142V13.2373ZM12.6142 17.7711H38.9355V19.0211H12.6142V17.7711ZM12.6142 22.3048H38.9355V23.5548H12.6142V22.3048ZM12.6142 28.0886V26.8386H38.9355V28.0886H12.6142Z" fill="#E3D6C3"/>
<path d="M5.87875 6.10352H5.73C3.67 6.10352 2 7.77477 2 9.83477V12.196C2 12.8485 2.52875 13.3773 3.18125 13.3773H9.46125V9.81977C9.46125 7.80977 7.86875 6.18227 5.87875 6.10352Z" fill="#D7BF95"/>
<path d="M48.2508 36.8828V38.8328C48.2508 42.2703 45.4633 45.0578 42.0383 45.0578H15.6758C19.1133 45.0578 21.9008 42.2703 21.9008 38.8328V36.8828C21.9008 36.2328 22.4258 35.6953 23.0758 35.6953H47.0758C47.7258 35.6953 48.2508 36.2328 48.2508 36.8828Z" fill="#D7BF95"/>
<path d="M38.9345 13.2363H12.6133V14.4863H38.9345V13.2363Z" fill="#D7BF95"/>
<path d="M38.9345 17.7715H12.6133V19.0215H38.9345V17.7715Z" fill="#D7BF95"/>
<path d="M38.9345 22.3047H12.6133V23.5547H38.9345V22.3047Z" fill="#D7BF95"/>
<path d="M38.9345 26.8379H12.6133V28.0879H38.9345V26.8379Z" fill="#D7BF95"/>
</g>
<defs>
<clipPath id="clip0_3464_15995">
<rect width="50" height="50" fill="white" transform="translate(0.125 0.570312)"/>
</clipPath>
</defs>
</svg>
