<svg width="32" height="33" viewBox="0 0 32 33" fill="none" xmlns="http://www.w3.org/2000/svg">
<path d="M13.3327 20.5697L20.2527 16.5697L13.3327 12.5697V20.5697ZM28.746 10.1297C28.9193 10.7563 29.0393 11.5963 29.1193 12.663C29.2127 13.7297 29.2527 14.6497 29.2527 15.4497L29.3327 16.5697C29.3327 19.4897 29.1193 21.6363 28.746 23.0097C28.4127 24.2097 27.6393 24.983 26.4393 25.3163C25.8127 25.4897 24.666 25.6097 22.906 25.6897C21.1727 25.783 19.586 25.823 18.1193 25.823L15.9993 25.903C10.4127 25.903 6.93268 25.6897 5.55935 25.3163C4.35935 24.983 3.58602 24.2097 3.25268 23.0097C3.07935 22.383 2.95935 21.543 2.87935 20.4763C2.78602 19.4097 2.74602 18.4897 2.74602 17.6897L2.66602 16.5697C2.66602 13.6497 2.87935 11.503 3.25268 10.1297C3.58602 8.92966 4.35935 8.15633 5.55935 7.82299C6.18602 7.64966 7.33268 7.52966 9.09268 7.44966C10.826 7.35633 12.4127 7.31633 13.8793 7.31633L15.9993 7.23633C21.586 7.23633 25.066 7.44966 26.4393 7.82299C27.6393 8.15633 28.4127 8.92966 28.746 10.1297Z" fill="#99A1AF"/>
</svg>
